<?xml version="1.0" standalone="no"?> <!DOCTYPE svg PUBLIC "-//W3C//DTD SVG 20010904//EN" "http://www.w3.org/TR/2001/REC-SVG-20010904/DTD/svg10.dtd"> <svg version="1.0" xmlns="http://www.w3.org/2000/svg" width="600.000000pt" height="600.000000pt" viewBox="0 0 600.000000 600.000000" preserveAspectRatio="xMidYMid meet"> <g transform="translate(0.000000,600.000000) scale(0.050000,-0.050000)" fill="#aa7942" stroke="none"> <path d="M0 6000 l0 -6000 6000 0 6000 0 0 6000 0 6000 -6000 0 -6000 0 0 -6000z m4795 4051 c60 -33 121 -89 163 -151 l67 -98 94 48 c446 226 1330 63 1583 -293 63 -88 37 -89 -125 0 -324 176 -778 251 -1048 174 -410 -118 -399 -271 41 -561 351 -230 440 -365 440 -660 -1 -219 -7 -238 -131 -381 -103 -119 -157 -225 -172 -341 -20 -145 -53 -53 -43 119 6 98 24 175 57 243 132 271 -76 682 -441 870 -290 149 -472 500 -349 675 74 107 -207 210 -345 126 -285 -174 1 -733 302 -591 40 20 78 30 84 24 16 -15 -132 -174 -162 -174 -65 0 -70 -51 -27 -272 75 -390 71 -485 -35 -696 -43 -86 -46 -102 -20 -130 69 -78 147 -253 138 -312 -7 -50 5 -73 73 -139 76 -75 81 -86 81 -195 l0 -116 73 0 c138 0 387 -166 496 -330 108 -162 107 -190 -1 -87 -180 171 -250 202 -436 196 -346 -11 -384 17 -363 265 14 156 13 162 -40 217 -37 39 -51 71 -45 104 5 26 -3 58 -18 72 -14 13 -26 42 -26 64 0 26 -46 69 -140 132 -160 106 -179 157 -82 225 141 101 243 422 240 757 l-3 225 -55 0 c-240 0 -460 278 -460 580 2 389 309 588 635 411z m1975 -659 c317 -85 674 -319 812 -532 l64 -99 64 39 c419 259 855 -165 617 -601 -215 -397 -825 -424 -901 -39 -24 121 -12 140 38 59 66 -109 214 -146 352 -88 337 141 321 569 -21 569 -103 0 -104 -1 -125 -126 -35 -211 -237 -324 -634 -353 -525 -39 -767 -202 -824 -554 -28 -176 -71 -280 -143 -348 -57 -54 -59 -49 -18 49 35 85 41 217 19 443 -37 392 239 646 740 679 416 27 530 72 530 211 0 225 -528 563 -956 612 -63 7 -127 15 -144 18 -16 3 -79 7 -139 7 -95 2 -106 6 -80 31 77 75 505 89 749 23z m573 -1237 c18 -44 25 -128 22 -255 -10 -326 112 -658 280 -766 91 -58 71 -100 -105 -212 -131 -83 -160 -110 -160 -152 0 -31 -11 -50 -29 -50 -23 0 -27 -15 -18 -60 10 -50 2 -68 -43 -104 -54 -42 -55 -46 -42 -200 21 -258 -28 -298 -362 -293 -247 4 -277 -7 -483 -167 -119 -94 -191 -125 -103 -46 22 20 40 49 40 64 0 105 403 371 566 374 l96 2 -6 117 c-6 117 -5 118 83 195 80 68 89 85 85 152 -3 61 13 101 84 205 l88 128 -63 122 c-80 155 -86 374 -16 681 26 117 40 227 33 265 -6 36 -3 65 7 65 10 0 30 -29 46 -65z m-1194 -878 c-18 -108 -91 -318 -157 -452 -29 -58 -52 -109 -52 -114 0 -125 -322 -492 -613 -699 -233 -165 -42 -655 325 -833 212 -102 753 -24 880 127 116 138 -27 354 -234 354 -97 0 -102 31 -8 49 362 68 571 -379 272 -583 -269 -183 -656 -183 -1152 1 -406 150 -428 708 -43 1094 71 71 198 233 281 359 84 127 214 320 290 430 76 110 154 234 174 275 46 97 55 95 37 -8z m-1602 -1920 c16 -26 4 -56 -59 -140 -157 -210 -312 -481 -289 -504 25 -25 27 -135 3 -238 -10 -41 -11 -75 -4 -75 48 0 214 137 307 253 181 226 253 270 356 217 152 -79 14 -371 -233 -491 -114 -55 -114 -87 -1 -74 88 10 257 109 404 238 64 57 129 66 129 19 0 -39 -275 -266 -394 -325 -235 -117 -413 -83 -413 79 l0 62 -53 -38 c-29 -20 -76 -43 -106 -51 -41 -10 -70 -47 -128 -165 -150 -299 -340 -433 -460 -321 -73 70 -27 201 216 612 l103 174 -143 -134 c-216 -204 -342 -206 -362 -5 l-10 98 -156 -148 c-159 -150 -275 -240 -313 -240 -39 0 -101 80 -101 130 0 60 -14 62 -69 14 -294 -260 -626 -139 -480 175 123 264 333 450 445 396 139 -66 66 -373 -83 -351 -75 11 -82 62 -18 131 33 35 65 84 71 109 18 70 -114 -87 -198 -236 -90 -161 -91 -228 -5 -228 101 0 379 181 483 314 210 268 542 363 510 145 -5 -31 -1 -52 9 -46 51 31 139 -39 126 -101 -7 -34 -18 -93 -24 -132 l-11 -70 84 80 c86 81 303 342 589 709 166 212 223 245 278 158z m513 -4 c0 -47 -361 -353 -417 -353 -46 0 -21 38 102 151 207 192 315 261 315 202z m1841 -1123 c107 -54 360 -294 718 -680 81 -88 223 -238 314 -332 l167 -173 0 424 c0 458 -13 511 -121 511 -21 0 -39 8 -39 17 0 10 245 23 545 29 300 7 570 18 600 25 35 9 55 6 55 -8 0 -12 -21 -28 -47 -34 -95 -24 -103 -74 -103 -648 0 -529 0 -533 50 -629 196 -378 861 -269 744 123 -34 112 -83 160 -361 347 -349 234 -436 397 -326 612 95 186 208 231 556 223 l254 -7 -5 -149 c-6 -190 -15 -202 -69 -97 -102 203 -467 206 -505 5 -19 -101 14 -135 322 -339 358 -237 447 -346 449 -552 6 -457 -663 -699 -1035 -375 -64 56 -70 57 -300 56 l-234 -1 100 -92 c127 -117 249 -170 387 -168 134 1 113 -44 -36 -76 -298 -64 -391 4 -1201 868 l-390 416 -5 -406 c-6 -444 5 -500 104 -500 27 0 54 -9 61 -20 12 -20 -58 -22 -746 -22 l-266 0 46 -81 c84 -150 242 -256 381 -257 63 0 36 -38 -37 -52 -470 -88 -735 192 -850 897 -26 162 -53 295 -59 295 -22 0 -419 -714 -431 -776 -24 -119 -35 -102 -338 486 -97 187 -182 347 -190 356 -18 21 -110 -751 -94 -793 7 -18 31 -33 53 -33 23 0 41 -9 41 -20 0 -13 -324 -20 -931 -20 -616 0 -927 7 -919 20 7 11 27 20 45 20 89 0 105 51 105 343 l0 277 -310 0 -310 0 0 -327 c0 -529 -99 -693 -419 -693 -142 0 -160 33 -55 95 138 81 143 113 150 889 6 759 4 776 -116 776 -22 0 -40 9 -40 20 0 13 120 20 320 20 200 0 320 -7 320 -20 0 -11 -16 -20 -36 -20 -103 0 -124 -62 -124 -361 l0 -279 308 0 308 0 7 315 c9 412 75 566 262 612 69 17 70 26 -25 -157 -111 -213 -89 -390 49 -390 17 0 31 -11 32 -25 0 -14 0 -221 -1 -460 -1 -443 17 -595 70 -595 61 0 70 79 70 588 l0 510 65 50 c36 28 92 90 125 139 l59 88 181 10 c99 6 194 14 210 18 25 6 31 -25 36 -178 5 -183 -19 -250 -44 -118 -19 100 -86 152 -203 158 l-99 5 -6 -285 -5 -285 175 0 c206 1 268 25 295 115 36 120 51 67 51 -175 0 -147 -8 -240 -20 -240 -11 0 -20 19 -20 42 0 104 -102 158 -298 158 l-182 0 0 -280 0 -280 215 0 c407 0 444 30 494 391 20 142 48 340 62 439 l25 180 -93 140 c-61 91 -126 161 -187 200 -119 76 -119 76 24 118 258 78 409 -63 739 -688 102 -192 196 -361 209 -375 18 -19 62 43 200 280 418 719 432 740 432 643 0 -24 12 -29 45 -20 25 6 122 17 215 23 368 23 388 27 336 67 -125 94 -207 127 -322 127 -130 0 -143 27 -33 68 103 39 273 21 400 -43z"/> <path d="M4758 4731 c-86 -102 -181 -251 -161 -251 25 0 157 153 196 226 43 83 25 96 -35 25z"/> <path d="M3282 4685 c-92 -94 -195 -222 -250 -308 l-42 -67 60 43 c33 24 119 95 190 157 72 63 150 128 174 144 37 25 40 35 20 68 -35 56 -70 47 -152 -37z"/> <path d="M4091 4583 c-34 -67 -41 -123 -13 -123 17 0 66 162 52 176 -4 4 -21 -20 -39 -53z"/> <path d="M3863 4145 c-164 -342 -119 -350 68 -12 80 145 98 227 50 227 -7 0 -61 -97 -118 -215z"/> <path d="M6973 3865 c-49 -297 -6 -1239 55 -1219 35 12 50 1209 16 1257 -39 55 -57 45 -71 -38z"/> <path d="M6460 3902 c-60 -7 -122 -20 -137 -30 -32 -20 -31 -30 75 -612 132 -726 122 -699 209 -603 75 83 42 1326 -34 1260 -1 -2 -52 -8 -113 -15z"/> <path d="M8505 3905 l-105 -7 0 -595 0 -596 55 -50 c68 -63 177 -47 195 29 20 81 1 1221 -20 1223 -11 2 -67 0 -125 -4z"/> </g> </svg>